<?xml version="1.0" encoding="UTF-8"?>
<!DOCTYPE svg PUBLIC "-//W3C//DTD SVG 1.1//EN" "http://www.w3.org/Graphics/SVG/1.1/DTD/svg11.dtd">
<!-- Creator: CorelDRAW 2020 (64-Bit) -->
<svg xmlns="http://www.w3.org/2000/svg" xml:space="preserve" width="279.4mm" height="215.9mm" version="1.1" style="shape-rendering:geometricPrecision; text-rendering:geometricPrecision; image-rendering:optimizeQuality; fill-rule:evenodd; clip-rule:evenodd"
viewBox="0 0 27940 21590"
 xmlns:xlink="http://www.w3.org/1999/xlink"
 xmlns:xodm="http://www.corel.com/coreldraw/odm/2003"
 enable-background="new 0 0 600 138.596">
 <defs>
  <style type="text/css">
   <![CDATA[
    .fil0 {fill:white;fill-rule:nonzero}
   ]]>
  </style>
 </defs>
 <g id="Capa_x0020_1">
  <metadata id="CorelCorpID_0Corel-Layer"/>
  <path class="fil0" d="M6572.42 11426.77c0,390.19 63.58,694.56 190.73,913.1 127.15,218.54 301.98,328.2 523.7,328.2 223.3,0 398.14,-109.66 525.28,-328.2 127.15,-218.54 190.73,-522.91 190.73,-913.1 0,-389.39 -63.58,-692.97 -189.93,-910.71 -126.36,-218.54 -301.98,-327.41 -526.08,-327.41 -223.31,0 -398.14,108.87 -524.5,327.41 -126.35,217.74 -189.93,521.32 -189.93,910.71zm714.43 -1624.34c215.36,0 421.98,34.97 619.85,105.7 198.67,70.72 368.74,170.85 511.78,299.59 172.45,153.38 302.78,333.77 390.99,541.18 88.21,206.62 132.71,434.7 132.71,682.64 0,247.15 -44.5,473.63 -134.3,678.66 -89.01,205.83 -218.54,385.43 -389.4,538.8 -144.63,128.74 -314.7,228.87 -511.78,299.6 -196.28,70.72 -402.9,105.69 -619.85,105.69 -216.16,0 -422.78,-35.76 -619.86,-107.28 -197.08,-71.52 -367.14,-170.86 -510.19,-298.01 -173.24,-156.55 -304.36,-337.74 -391.78,-544.36 -88.21,-206.62 -131.92,-433.9 -131.92,-681.84 0,-243.97 44.51,-469.66 134.31,-677.87 89,-207.41 218.54,-388.6 389.39,-541.98 141.46,-127.15 310.73,-225.69 507.81,-295.62 197.08,-69.93 404.49,-104.9 622.24,-104.9zm2132.94 3175.57l0 -2064.6 900.38 0c277.34,0 488.73,52.45 633.36,157.35 143.84,104.11 216.16,256.69 216.16,456.95 0,138.27 -31.79,251.12 -96.16,337.74 -64.37,86.62 -161.32,147.81 -290.06,183.57l605.55 928.99 -786.74 0 -468.86 -972.7 0 -37.35c129.53,-19.07 223.3,-60.39 283.7,-124.76 59.6,-64.37 89.8,-156.56 89.8,-275.76 0,-120.79 -31.79,-212.97 -95.36,-274.96 -64.37,-61.99 -158.15,-92.98 -282.91,-92.98 -18.28,0 -33.38,0 -44.5,0.8 -11.13,0.79 -20.67,2.38 -30.2,3.97l0 1773.74 -634.16 0zm2975.31 -638.13c0,127.15 21.46,213.77 63.57,259.86 42.92,45.3 124.77,68.34 245.56,68.34l167.68 0 0 309.93 -572.17 0c-212.18,0 -361.59,-46.09 -448.21,-137.48 -85.82,-91.39 -128.74,-255.1 -128.74,-491.12l0 -2704.32 672.31 0 0 2694.79zm520.52 638.13l538 -1683.15c53.25,-167.68 113.64,-284.49 181.19,-350.45 67.55,-65.17 158.94,-97.75 273.37,-97.75 107.29,0 191.52,28.61 251.92,86.62 60.39,57.22 116.82,166.89 167.68,329l557.07 1715.73 -706.47 0 -113.64 -376.68 -687.41 0 -109.66 376.68 -352.05 0zm547.54 -662.77l514.96 0 -247.15 -896.41 -267.81 896.41zm2127.37 -682.63l0 1345.4 -333.77 0 0 -1729.24c0,-139.07 27.82,-240.79 82.65,-305.16 54.83,-64.37 139.87,-96.95 254.3,-96.95 94.57,0 178.81,27.02 252.71,81.06 74.7,53.24 150.2,143.84 228.08,271.78l460.12 749.39 0 -1035.48 333.77 0 0 1796.79c0,123.97 -18.28,212.18 -54.84,265.43 -36.55,52.45 -96.95,78.67 -179.59,78.67 -62.78,0 -119.21,-20.66 -170.86,-62.78 -51.66,-42.12 -115.23,-120.79 -189.93,-236.82l-682.64 -1122.09zm3088.94 -433.11c-227.28,3.18 -390.19,62.78 -489.52,178.01 -99.34,116.03 -149.4,305.96 -149.4,571.38 0,263.84 49.27,452.97 147.81,567.41 99.33,113.64 262.24,172.44 491.11,175.62l0 -1492.42zm672.31 -1554.41l0 3332.92 -867.8 0c-382.24,0 -673.1,-85.03 -872.56,-255.09 -200.27,-170.07 -300.4,-417.21 -300.4,-741.45 0,-344.1 108.88,-608.73 325.83,-792.3 216.94,-183.57 530.05,-275.76 937.73,-275.76l104.89 0 0 -1268.32 672.31 0zm1830.96 2322.87c0,-280.52 -28.61,-491.91 -85.03,-633.36 -57.22,-140.66 -143.05,-211.39 -258.28,-211.39 -107.28,0 -187.54,66.76 -239.99,201.06 -53.25,134.3 -79.47,336.94 -79.47,608.73 0,282.11 28.61,494.29 86.62,636.54 57.22,142.25 143.04,212.98 256.68,212.98 107.29,0 187.55,-67.55 240,-202.65 53.24,-135.09 79.47,-338.53 79.47,-611.91zm-329 1086.34c-302.78,0 -554.7,-110.46 -755.75,-330.59 -201.85,-220.92 -302.78,-496.68 -302.78,-828.86 0,-317.08 96.16,-570.58 288.47,-762.1 192.32,-190.73 449,-286.09 770.06,-286.09 301.18,0 551.51,110.46 752.56,332.18 201.06,220.92 301.19,497.47 301.19,829.65 0,320.26 -95.36,574.56 -285.29,762.9 -189.93,188.34 -445.82,282.91 -768.46,282.91z"/>
 </g>
</svg>
